<svg width="20" height="22" viewBox="0 0 20 22" fill="none" xmlns="http://www.w3.org/2000/svg">
<path fill-rule="evenodd" clip-rule="evenodd" d="M4.6875 5.29561C4.6875 2.38042 7.06599 0.0171814 10 0.0171814C12.934 0.0171814 15.3125 2.38042 15.3125 5.29561C15.3125 8.21081 12.934 10.574 10 10.574C7.06599 10.574 4.6875 8.21081 4.6875 5.29561ZM10 1.88016C8.10152 1.88016 6.5625 3.40931 6.5625 5.29561C6.5625 7.18192 8.10152 8.71107 10 8.71107C11.8985 8.71107 13.4375 7.18192 13.4375 5.29561C13.4375 3.40931 11.8985 1.88016 10 1.88016Z" fill="#4F5665"/>
<path fill-rule="evenodd" clip-rule="evenodd" d="M5 14.3C3.4467 14.3 2.1875 15.5511 2.1875 17.0945V18.5703C2.1875 18.5928 2.20389 18.6119 2.22621 18.6155C7.37466 19.4507 12.6253 19.4507 17.7738 18.6155C17.7961 18.6119 17.8125 18.5928 17.8125 18.5703V17.0945C17.8125 15.5511 16.5533 14.3 15 14.3H14.5739C14.541 14.3 14.5082 14.3052 14.4769 14.3153L13.395 14.6663C11.189 15.3821 8.81101 15.3821 6.60498 14.6663L5.52309 14.3153C5.49177 14.3052 5.45903 14.3 5.42609 14.3H5ZM0.3125 17.0945C0.3125 14.5222 2.41116 12.437 5 12.437H5.42609C5.6567 12.437 5.88587 12.4733 6.10509 12.5444L7.18698 12.8954C9.01484 13.4884 10.9852 13.4884 12.813 12.8954L13.8949 12.5444C14.1141 12.4733 14.3433 12.437 14.5739 12.437H15C17.5888 12.437 19.6875 14.5222 19.6875 17.0945V18.5703C19.6875 19.5058 19.0051 20.3034 18.0759 20.4542C12.7274 21.3218 7.27262 21.3218 1.92409 20.4542C0.994855 20.3034 0.3125 19.5058 0.3125 18.5703V17.0945Z" fill="#4F5665"/>
</svg>
