<svg width="120" height="36" viewBox="0 0 120 36" fill="none" xmlns="http://www.w3.org/2000/svg">
<path d="M52.14 25.277C50.8733 25.277 49.7867 25.0703 48.88 24.657C47.9867 24.2437 47.2867 23.637 46.78 22.837C46.2867 22.037 46.0133 21.0437 45.96 19.857C45.9467 19.3103 45.94 18.7237 45.94 18.097C45.94 17.4703 45.9467 16.8703 45.96 16.297C46.0133 15.137 46.2933 14.157 46.8 13.357C47.3067 12.5437 48.0133 11.9303 48.92 11.517C49.8267 11.0903 50.9 10.877 52.14 10.877C53.02 10.877 53.8333 10.9903 54.58 11.217C55.3267 11.4303 55.98 11.7503 56.54 12.177C57.1 12.5903 57.5333 13.097 57.84 13.697C58.16 14.2837 58.3267 14.9503 58.34 15.697C58.3533 15.817 58.3133 15.917 58.22 15.997C58.14 16.077 58.04 16.117 57.92 16.117H55.22C55.0467 16.117 54.9133 16.0837 54.82 16.017C54.7267 15.937 54.6467 15.797 54.58 15.597C54.3933 14.8903 54.0867 14.4103 53.66 14.157C53.2467 13.8903 52.7333 13.757 52.12 13.757C51.3867 13.757 50.8067 13.9637 50.38 14.377C49.9533 14.777 49.72 15.4503 49.68 16.397C49.64 17.4903 49.64 18.6103 49.68 19.757C49.72 20.7037 49.9533 21.3837 50.38 21.797C50.8067 22.197 51.3867 22.397 52.12 22.397C52.7333 22.397 53.2533 22.2637 53.68 21.997C54.1067 21.7303 54.4067 21.2503 54.58 20.557C54.6333 20.357 54.7067 20.2237 54.8 20.157C54.9067 20.077 55.0467 20.037 55.22 20.037H57.92C58.04 20.037 58.14 20.077 58.22 20.157C58.3133 20.237 58.3533 20.337 58.34 20.457C58.3267 21.2037 58.16 21.877 57.84 22.477C57.5333 23.0637 57.1 23.5703 56.54 23.997C55.98 24.4103 55.3267 24.7303 54.58 24.957C53.8333 25.1703 53.02 25.277 52.14 25.277ZM65.143 25.277C64.023 25.277 63.0763 25.097 62.303 24.737C61.543 24.377 60.9563 23.8637 60.543 23.197C60.143 22.517 59.9163 21.7103 59.863 20.777C59.8496 20.5103 59.843 20.2103 59.843 19.877C59.843 19.5303 59.8496 19.2303 59.863 18.977C59.9163 18.0303 60.1563 17.2237 60.583 16.557C61.0096 15.8903 61.603 15.377 62.363 15.017C63.1363 14.657 64.063 14.477 65.143 14.477C66.2363 14.477 67.163 14.657 67.923 15.017C68.6963 15.377 69.2963 15.8903 69.723 16.557C70.1496 17.2237 70.3896 18.0303 70.443 18.977C70.4563 19.2303 70.463 19.5303 70.463 19.877C70.463 20.2103 70.4563 20.5103 70.443 20.777C70.3896 21.7103 70.1563 22.517 69.743 23.197C69.343 23.8637 68.7563 24.377 67.983 24.737C67.223 25.097 66.2763 25.277 65.143 25.277ZM65.143 22.837C65.743 22.837 66.1763 22.657 66.443 22.297C66.723 21.937 66.883 21.397 66.923 20.677C66.9363 20.477 66.943 20.2103 66.943 19.877C66.943 19.5437 66.9363 19.277 66.923 19.077C66.883 18.3703 66.723 17.837 66.443 17.477C66.1763 17.1037 65.743 16.917 65.143 16.917C64.5563 16.917 64.123 17.1037 63.843 17.477C63.563 17.837 63.4096 18.3703 63.383 19.077C63.3696 19.277 63.363 19.5437 63.363 19.877C63.363 20.2103 63.3696 20.477 63.383 20.677C63.4096 21.397 63.563 21.937 63.843 22.297C64.123 22.657 64.5563 22.837 65.143 22.837ZM76.31 25.277C75.67 25.277 75.09 25.177 74.57 24.977C74.0633 24.7637 73.6233 24.457 73.25 24.057C72.89 23.6437 72.61 23.1503 72.41 22.577C72.21 21.9903 72.0967 21.3237 72.07 20.577C72.0567 20.3103 72.05 20.077 72.05 19.877C72.05 19.6637 72.0567 19.4303 72.07 19.177C72.0967 18.457 72.21 17.8103 72.41 17.237C72.61 16.6637 72.89 16.1703 73.25 15.757C73.61 15.3437 74.05 15.0303 74.57 14.817C75.09 14.5903 75.67 14.477 76.31 14.477C76.9767 14.477 77.55 14.5903 78.03 14.817C78.51 15.0303 78.9167 15.3103 79.25 15.657V11.377C79.25 11.2303 79.2967 11.1103 79.39 11.017C79.4833 10.9237 79.6033 10.877 79.75 10.877H82.19C82.3233 10.877 82.4367 10.9237 82.53 11.017C82.6367 11.1103 82.69 11.2303 82.69 11.377V24.577C82.69 24.7237 82.6367 24.8437 82.53 24.937C82.4367 25.0303 82.3233 25.077 82.19 25.077H79.93C79.7833 25.077 79.6633 25.0303 79.57 24.937C79.4767 24.8437 79.43 24.7237 79.43 24.577V23.937C79.11 24.3237 78.6967 24.6437 78.19 24.897C77.6833 25.1503 77.0567 25.277 76.31 25.277ZM77.39 22.597C77.8433 22.597 78.1967 22.5037 78.45 22.317C78.7167 22.117 78.91 21.8637 79.03 21.557C79.1633 21.2503 79.2367 20.917 79.25 20.557C79.2633 20.2903 79.27 20.037 79.27 19.797C79.27 19.557 79.2633 19.3103 79.25 19.057C79.2367 18.7237 79.1633 18.417 79.03 18.137C78.8967 17.8437 78.6967 17.6103 78.43 17.437C78.1633 17.2503 77.8167 17.157 77.39 17.157C76.95 17.157 76.5967 17.2503 76.33 17.437C76.0767 17.6237 75.8967 17.877 75.79 18.197C75.6833 18.517 75.6167 18.8703 75.59 19.257C75.55 19.6703 75.55 20.0837 75.59 20.497C75.6167 20.8837 75.6833 21.237 75.79 21.557C75.8967 21.877 76.0767 22.1303 76.33 22.317C76.5967 22.5037 76.95 22.597 77.39 22.597ZM89.8472 25.277C88.2739 25.277 87.0205 24.8503 86.0872 23.997C85.1539 23.1437 84.6672 21.877 84.6272 20.197C84.6272 20.1037 84.6272 19.9837 84.6272 19.837C84.6272 19.6903 84.6272 19.577 84.6272 19.497C84.6672 18.4437 84.9005 17.5437 85.3272 16.797C85.7672 16.037 86.3672 15.4637 87.1272 15.077C87.9005 14.677 88.8005 14.477 89.8272 14.477C91.0005 14.477 91.9672 14.7103 92.7272 15.177C93.5005 15.6437 94.0805 16.277 94.4672 17.077C94.8539 17.877 95.0472 18.7903 95.0472 19.817V20.297C95.0472 20.4437 94.9939 20.5637 94.8872 20.657C94.7939 20.7503 94.6805 20.797 94.5472 20.797H88.1472C88.1472 20.8103 88.1472 20.8303 88.1472 20.857C88.1472 20.8837 88.1472 20.9103 88.1472 20.937C88.1605 21.3237 88.2272 21.677 88.3472 21.997C88.4672 22.317 88.6539 22.5703 88.9072 22.757C89.1605 22.9437 89.4672 23.037 89.8272 23.037C90.0939 23.037 90.3139 22.997 90.4872 22.917C90.6739 22.8237 90.8272 22.7237 90.9472 22.617C91.0672 22.497 91.1605 22.397 91.2272 22.317C91.3472 22.1837 91.4405 22.1037 91.5072 22.077C91.5872 22.037 91.7072 22.017 91.8672 22.017H94.3472C94.4805 22.017 94.5872 22.057 94.6672 22.137C94.7605 22.2037 94.8005 22.3037 94.7872 22.437C94.7739 22.6637 94.6605 22.937 94.4472 23.257C94.2339 23.577 93.9205 23.897 93.5072 24.217C93.1072 24.5237 92.6005 24.777 91.9872 24.977C91.3739 25.177 90.6605 25.277 89.8472 25.277ZM88.1472 18.817H91.5272V18.777C91.5272 18.3503 91.4605 17.977 91.3272 17.657C91.2072 17.337 91.0139 17.0903 90.7472 16.917C90.4939 16.7437 90.1872 16.657 89.8272 16.657C89.4672 16.657 89.1605 16.7437 88.9072 16.917C88.6672 17.0903 88.4805 17.337 88.3472 17.657C88.2139 17.977 88.1472 18.3503 88.1472 18.777V18.817ZM100.232 25.077C100.032 25.077 99.8849 25.0303 99.7916 24.937C99.6982 24.8303 99.6182 24.7103 99.5516 24.577L95.7716 15.297C95.7449 15.2437 95.7316 15.1837 95.7316 15.117C95.7316 14.997 95.7716 14.897 95.8516 14.817C95.9449 14.7237 96.0582 14.677 96.1916 14.677H98.4516C98.6249 14.677 98.7582 14.7237 98.8516 14.817C98.9449 14.9103 99.0049 15.0037 99.0316 15.097L101.292 21.237L103.572 15.097C103.598 15.0037 103.658 14.9103 103.752 14.817C103.845 14.7237 103.978 14.677 104.152 14.677H106.412C106.532 14.677 106.638 14.7237 106.732 14.817C106.825 14.897 106.872 14.997 106.872 15.117C106.872 15.1837 106.858 15.2437 106.832 15.297L103.052 24.577C102.998 24.7103 102.918 24.8303 102.812 24.937C102.718 25.0303 102.565 25.077 102.352 25.077H100.232ZM112.955 25.277C111.835 25.277 110.889 25.097 110.115 24.737C109.355 24.377 108.769 23.8637 108.355 23.197C107.955 22.517 107.729 21.7103 107.675 20.777C107.662 20.5103 107.655 20.2103 107.655 19.877C107.655 19.5303 107.662 19.2303 107.675 18.977C107.729 18.0303 107.969 17.2237 108.395 16.557C108.822 15.8903 109.415 15.377 110.175 15.017C110.949 14.657 111.875 14.477 112.955 14.477C114.049 14.477 114.975 14.657 115.735 15.017C116.509 15.377 117.109 15.8903 117.535 16.557C117.962 17.2237 118.202 18.0303 118.255 18.977C118.269 19.2303 118.275 19.5303 118.275 19.877C118.275 20.2103 118.269 20.5103 118.255 20.777C118.202 21.7103 117.969 22.517 117.555 23.197C117.155 23.8637 116.569 24.377 115.795 24.737C115.035 25.097 114.089 25.277 112.955 25.277ZM112.955 22.837C113.555 22.837 113.989 22.657 114.255 22.297C114.535 21.937 114.695 21.397 114.735 20.677C114.749 20.477 114.755 20.2103 114.755 19.877C114.755 19.5437 114.749 19.277 114.735 19.077C114.695 18.3703 114.535 17.837 114.255 17.477C113.989 17.1037 113.555 16.917 112.955 16.917C112.369 16.917 111.935 17.1037 111.655 17.477C111.375 17.837 111.222 18.3703 111.195 19.077C111.182 19.277 111.175 19.5437 111.175 19.877C111.175 20.2103 111.182 20.477 111.195 20.677C111.222 21.397 111.375 21.937 111.655 22.297C111.935 22.657 112.369 22.837 112.955 22.837Z" fill="#FF5151"/>
<path d="M31.1473 13.5602L31.1255 13.5386C31.1238 13.5374 31.1224 13.5358 31.1215 13.5339L17.5006 0L3.87983 13.5335C3.87826 13.5351 3.8758 13.5382 3.8758 13.5382L3.85333 13.5599C1.77053 15.6409 0.447586 18.354 0.0948177 21.2679C-0.25795 24.1819 0.379698 27.1293 1.90639 29.6418C3.43309 32.1543 5.76122 34.0877 8.52069 35.1345C11.2802 36.1812 14.3126 36.2815 17.136 35.4191C17.3735 35.347 17.6275 35.347 17.8651 35.4191C20.6882 36.2812 23.7205 36.1809 26.4798 35.134C29.2391 34.087 31.567 32.1538 33.0936 29.6415C34.6202 27.1291 35.2579 24.1819 34.9053 21.2681C34.5526 18.3544 33.2299 15.6413 31.1473 13.5602ZM8.7232 22.4847C8.65689 22.5506 8.6043 22.6289 8.56844 22.7148C8.53257 22.8008 8.5141 22.8931 8.51412 22.9862C8.53835 25.3748 9.21776 27.7116 10.4792 29.7451C10.5079 29.7912 10.5211 29.8452 10.517 29.8992C10.513 29.9532 10.4918 30.0046 10.4566 30.046C10.4213 30.0874 10.3738 30.1166 10.3209 30.1295C10.2679 30.1425 10.2122 30.1385 10.1616 30.118C9.21332 29.7217 8.35182 29.1455 7.62531 28.4219C6.13646 26.9423 5.29946 24.9361 5.2981 22.8438C5.29675 20.7516 6.13117 18.7442 7.61812 17.2629L17.5006 7.44468L27.3826 17.2629C28.8698 18.7441 29.7045 20.7514 29.703 22.8438C29.7018 24.9361 28.8647 26.9423 27.3757 28.4219C26.6492 29.1455 25.7877 29.7217 24.8396 30.118C24.7889 30.1385 24.7332 30.1425 24.6802 30.1295C24.6273 30.1166 24.5798 30.0873 24.5445 30.046C24.5093 30.0046 24.488 29.9532 24.484 29.8991C24.4799 29.8451 24.4931 29.7911 24.5218 29.7449C25.7835 27.7116 26.4633 25.3748 26.4879 22.9862C26.4879 22.8931 26.4692 22.8008 26.4332 22.7147C26.3971 22.6285 26.3444 22.5504 26.2779 22.4845L21.6037 17.5584C21.5571 17.5198 21.4985 17.4986 21.4378 17.4986C21.3773 17.4986 21.3186 17.5198 21.2721 17.5584C21.2255 17.5969 21.1942 17.6505 21.1833 17.7097C21.1724 17.769 21.1828 17.83 21.2127 17.8824C23.0281 21.1465 21.467 25.835 18.8637 28.4219L18.85 28.4355C18.4907 28.7887 18.0056 28.9867 17.5002 28.9865C16.9948 28.9863 16.5098 28.788 16.1508 28.4347L16.1382 28.4219C13.5339 25.835 11.9736 21.147 13.7893 17.8831C13.8192 17.8307 13.8296 17.7697 13.8187 17.7104C13.8079 17.6512 13.7764 17.5976 13.7299 17.5591C13.6834 17.5205 13.6247 17.4993 13.5642 17.4993C13.5036 17.4993 13.4449 17.5205 13.3984 17.5591L8.7232 22.4847Z" fill="#FF5151"/>
</svg>
