<svg width="20" height="25" viewBox="0 0 20 25" fill="none" xmlns="http://www.w3.org/2000/svg">
<path fill-rule="evenodd" clip-rule="evenodd" d="M11.25 1.70671C11.25 1.02078 10.6903 0.464722 9.99999 0.464722C9.30963 0.464722 8.74999 1.02078 8.74999 1.70671V2.63819H8.05321C5.27187 2.63819 2.96988 4.78684 2.79625 7.54496L2.52 11.9335C2.41468 13.6067 1.84932 15.2191 0.885489 16.5951C0.0146371 17.8384 0.789913 19.5555 2.30358 19.736L6.56249 20.2438V21.5785C6.56249 23.4648 8.10151 24.9939 9.99999 24.9939C11.8985 24.9939 13.4375 23.4648 13.4375 21.5785V20.2438L17.6964 19.736C19.2101 19.5555 19.9853 17.8384 19.1145 16.5951C18.1506 15.2191 17.5853 13.6067 17.48 11.9335L17.2037 7.54496C17.0301 4.78684 14.7281 2.63819 11.9467 2.63819H11.25V1.70671ZM8.05321 4.50117C6.26196 4.50117 4.77941 5.88495 4.6676 7.66125L4.39135 12.0497C4.2646 14.0632 3.58428 16.0034 2.42447 17.6593C2.36153 17.7491 2.41756 17.8733 2.52697 17.8863L7.19905 18.4434C9.05966 18.6652 10.9403 18.6652 12.8009 18.4434L17.473 17.8863C17.5824 17.8733 17.6384 17.7491 17.5755 17.6593C16.4157 16.0034 15.7354 14.0632 15.6086 12.0497L15.3324 7.66125C15.2205 5.88495 13.738 4.50117 11.9467 4.50117H8.05321ZM9.99999 23.1309C9.13704 23.1309 8.43749 22.4359 8.43749 21.5785V20.647H11.5625V21.5785C11.5625 22.4359 10.8629 23.1309 9.99999 23.1309Z" fill="#4F5665"/>
</svg>
