<svg width="30" height="31" viewBox="0 0 30 31" fill="none" xmlns="http://www.w3.org/2000/svg">
<rect y="0.974335" width="30" height="29.8076" fill="#F4F4F4"/>
<path fill-rule="evenodd" clip-rule="evenodd" d="M17.9813 20.1577C14.6685 22.794 9.81921 22.5865 6.74823 19.5352C3.45318 16.2613 3.45318 10.9532 6.74823 7.67932C10.0433 4.4054 15.3856 4.4054 18.6807 7.67932C21.7516 10.7306 21.9605 15.5488 19.3072 18.8404L25.7517 25.2436C26.1178 25.6074 26.1178 26.1971 25.7517 26.5609C25.3856 26.9247 24.792 26.9247 24.4259 26.5609L17.9813 20.1577ZM8.07406 18.2179C5.51124 15.6715 5.51124 11.543 8.07406 8.99664C10.6369 6.45026 14.792 6.45026 17.3548 8.99664C19.9158 11.5412 19.9176 15.6655 17.3605 18.2123C17.3586 18.2141 17.3567 18.216 17.3548 18.2179C17.3529 18.2197 17.3511 18.2216 17.3492 18.2235C14.7859 20.7643 10.635 20.7624 8.07406 18.2179Z" fill="#4F5665"/>
</svg>
